<svg width="1301" height="300" viewBox="0 0 1301 300" fill="none" xmlns="http://www.w3.org/2000/svg">
<path fill-rule="evenodd" clip-rule="evenodd" d="M173.647 76.9401C176.493 79.2508 207.884 97.8335 210.567 97.7676C212.391 97.7221 243.184 79.2565 246.757 77.1027L246.581 35.3056C244.248 33.2564 212.598 14.3279 209.795 14.5508C208.716 14.6361 176.524 32.7878 173.661 35.3056L173.647 76.9401Z" fill="#B40381"/>
<path fill-rule="evenodd" clip-rule="evenodd" d="M65.9941 265.258C71.9965 267.543 99.3629 285.511 102.512 285.349C104.953 285.224 133.869 267.632 138.781 264.848L138.607 223.177C138.105 221.968 104.774 202.445 102.553 202.321C99.6016 202.156 72.1693 219.389 65.8577 222.48L65.9941 265.258Z" fill="#CE2112"/>
<path fill-rule="evenodd" clip-rule="evenodd" d="M65.8168 76.7866C69.6171 79.1212 99.912 97.7676 102.527 97.622C104.654 97.5015 134.246 80.0605 138.71 76.9628L138.525 35.3044C135.56 33.0221 104.708 14.4815 101.872 14.7305C100.721 14.8329 68.8589 32.9061 65.8168 35.3044V76.7866Z" fill="#03ACB4"/>
<path fill-rule="evenodd" clip-rule="evenodd" d="M174.537 264.637C175.563 266.704 207.779 284.722 209.763 284.845C213.637 285.085 241.62 267.524 246.115 265.121L246.391 225.817C245.817 220.152 236.951 217.063 228.058 212.094C206.543 200.074 213.687 199.734 200.378 207.458C196.974 209.432 174.948 221.036 173.981 223.573C172.439 227.616 172.969 262.437 174.537 264.637Z" fill="#DBBD14"/>
<path fill-rule="evenodd" clip-rule="evenodd" d="M12.9801 128.773L12.9937 171.225C18.1503 173.721 46.5774 191.227 49.1295 191.307C51.6407 191.384 82.6609 173.342 85.4972 170.536L85.6518 128.787C81.3763 126.007 51.8431 108.699 49.0988 108.743C44.5152 108.812 20.5365 125.477 12.9801 128.773Z" fill="#00BE3F"/>
<path fill-rule="evenodd" clip-rule="evenodd" d="M6.70718 125.261C12.6857 122.124 46.8821 100.91 49.7809 101.249C51.909 101.498 88.9952 123.331 92.0691 125.772L92.0112 174.168C89.9683 176.117 51.0326 198.558 49.1295 198.497C46.9673 198.426 8.91714 176.249 6.58782 174.168L6.70718 125.261ZM0.192121 178.762C7.77237 181.383 44.8847 206.152 49.2353 206.322C52.8083 206.462 90.132 182.053 98.4864 178.903L98.3455 121.138C95.3591 120.138 89.1748 116.043 86.1702 114.272C80.3134 110.817 52.216 93.8796 49.1125 93.9649C44.4925 94.0934 8.62157 117.484 0 121.341L0.192121 178.762Z" fill="#17B749"/>
<path fill-rule="evenodd" clip-rule="evenodd" d="M82.4881 205.787C95.0055 198.714 99.9381 193.027 106.368 196.705L140.914 216.668C144.176 218.481 144.581 217.935 145.034 221.352L144.816 268.338C141.328 270.757 104.393 292.386 102.516 292.516C100.501 292.656 65.8486 272.404 59.7257 268.563L59.62 219.545L82.4881 205.787ZM53.0629 271.975C57.0611 274.952 100.522 300.112 102.493 300C105.279 299.84 144.208 276.113 151.522 272.205L151.374 215.265L102.622 187.309C97.5167 188.715 58.7685 211.514 53.0265 215.395L53.0629 271.975Z" fill="#B72619"/>
<path fill-rule="evenodd" clip-rule="evenodd" d="M167.49 71.6078L167.517 31.6734C172.342 28.3869 206.748 8.11893 210.592 7.14436C217.571 10.5536 224.972 15.2445 231.955 19.4157C238.448 23.2958 247.28 27.6591 252.887 31.7973L252.864 80.6382L210.602 105.141C207.488 104.296 170.115 82.6874 167.508 80.3494L167.49 71.6078ZM160.981 39.8418L160.995 84.3147C165.609 87.8468 206.372 111.596 210.592 112.677L259.276 84.3147L259.438 28.0435C255.737 24.7775 227.973 9.48127 219.996 4.95301C205.143 -3.48147 215.512 -2.17371 179.555 16.9503C155.769 29.6014 160.979 27.8434 160.981 39.8418Z" fill="#B40381"/>
<path fill-rule="evenodd" clip-rule="evenodd" d="M59.5166 48.0102C59.5166 24.6411 55.8617 34.4197 97.095 9.71553C103.582 5.82978 103.324 7.22283 109.69 11.021C119.624 16.9503 138.341 26.8028 145.015 31.7701L144.958 80.5825C142.084 82.8239 137.407 85.2574 133.733 87.2452C95.2329 108.064 110.936 110.925 75.8116 90.3145C72.0886 88.1311 68.3337 85.8215 64.3355 83.6449C57.8659 80.1242 59.5268 79.1576 59.52 70.6992L59.5166 48.0102ZM53.0072 39.8418L52.9629 84.3136C56.7655 87.4317 100.536 112.192 101.824 112.269C104.866 112.454 148.373 86.9496 151.387 84.3147L151.515 37.1194C151.512 24.0656 153.696 29.3172 129.97 15.1479C125.191 12.2924 104.772 -0.64079 101.15 0.104064L59.462 23.8598C50.6233 28.9373 52.9992 27.7069 53.0072 39.8418Z" fill="#16A6A9"/>
<path fill-rule="evenodd" clip-rule="evenodd" d="M167.52 268.199L167.281 219.547C170.732 216.698 207.784 195.352 209.819 195.187C213.448 194.89 227.065 204.178 231.594 206.652C236.133 209.131 249.682 216.493 253.066 219.547C253.345 233.255 254.084 251.655 253.135 264.978C252.82 269.398 251.586 269.151 248.399 270.962L226.109 284.093C208.517 293.225 214.955 296.383 196.574 285.354C187.86 280.124 175.529 274.231 167.52 268.199ZM161.182 226.807C161.222 235.278 161.208 243.749 161.204 252.22C161.201 264.358 159.43 271.405 164.142 274.186C175.111 280.66 185.028 285.833 195.31 292.025C199.232 294.386 207.721 300.916 212.81 299.176L259.45 272.031L259.317 215.235C252.877 211.55 213.509 187.878 210.562 187.799C207.519 187.719 167.59 211.362 161.461 214.999L161.182 226.807Z" fill="#DBBD14"/>
<path fill-rule="evenodd" clip-rule="evenodd" d="M174.537 264.637C172.969 262.437 172.439 227.616 173.981 223.573C174.948 221.036 196.974 209.432 200.378 207.458C213.687 199.734 206.543 200.074 228.058 212.094C236.951 217.063 245.817 220.152 246.391 225.817L246.115 265.121C241.62 267.524 213.637 285.085 209.763 284.845C207.779 284.722 175.563 266.704 174.537 264.637ZM167.52 268.199C175.529 274.231 187.86 280.124 196.574 285.354C214.955 296.383 208.517 293.225 226.109 284.093L248.399 270.962C251.586 269.151 252.82 269.398 253.135 264.978C254.084 251.655 253.345 233.255 253.066 219.547C249.682 216.493 236.133 209.131 231.594 206.652C227.065 204.178 213.448 194.89 209.819 195.187C207.784 195.352 170.732 216.698 167.281 219.547L167.52 268.199Z" fill="#FEFDE4"/>
<path fill-rule="evenodd" clip-rule="evenodd" d="M65.8168 35.3044C68.8589 32.9061 100.721 14.8329 101.872 14.7305C104.708 14.4815 135.56 33.0221 138.525 35.3044L138.71 76.9628C134.246 80.0605 104.654 97.5015 102.527 97.622C99.912 97.7676 69.6171 79.1212 65.8168 76.7866V35.3044ZM59.5166 48.0102L59.52 70.6992C59.5268 79.1576 57.8659 80.1242 64.3355 83.6449C68.3337 85.8215 72.0886 88.1311 75.8116 90.3145C110.936 110.925 95.2329 108.064 133.733 87.2452C137.407 85.2574 142.084 82.8239 144.958 80.5825L145.015 31.7701C138.341 26.8028 119.624 16.9503 109.69 11.021C103.324 7.22283 103.582 5.82978 97.095 9.71553C55.8617 34.4197 59.5166 24.6411 59.5166 48.0102Z" fill="#ECFDF3"/>
<path fill-rule="evenodd" clip-rule="evenodd" d="M12.9801 128.773C20.5365 125.477 44.5152 108.812 49.0988 108.743C51.8431 108.699 81.3763 126.007 85.6518 128.787L85.4972 170.536C82.6609 173.342 51.6407 191.384 49.1295 191.307C46.5774 191.227 18.1503 173.721 12.9937 171.225L12.9801 128.773ZM6.70718 125.261L6.58782 174.168C8.91714 176.249 46.9673 198.426 49.1295 198.497C51.0326 198.558 89.9683 176.117 92.0112 174.168L92.0691 125.772C88.9952 123.331 51.909 101.498 49.7809 101.249C46.8821 100.91 12.6857 122.124 6.70718 125.261Z" fill="#ECFDF3"/>
<path fill-rule="evenodd" clip-rule="evenodd" d="M65.8577 222.48C72.1693 219.389 99.6016 202.156 102.553 202.321C104.774 202.445 138.105 221.968 138.607 223.177L138.781 264.848C133.869 267.632 104.953 285.224 102.512 285.349C99.3629 285.511 71.9965 267.543 65.9941 265.258L65.8577 222.48ZM59.62 219.545L59.7257 268.563C65.8486 272.404 100.501 292.656 102.516 292.516C104.393 292.386 141.328 270.757 144.816 268.338L145.034 221.352C144.581 217.935 144.176 218.481 140.914 216.668L106.368 196.705C99.9381 193.027 95.0055 198.714 82.4881 205.787L59.62 219.545Z" fill="#ECFDF3"/>
<path fill-rule="evenodd" clip-rule="evenodd" d="M137.382 139.962L137.418 162.201L156.928 173.432L176.071 162.339L176.256 139.581C172.396 138.068 158.919 129.368 156.944 129.27C154.927 129.169 140.444 138.301 137.382 139.962Z" fill="white"/>
<path fill-rule="evenodd" clip-rule="evenodd" d="M107.598 135.035L107.612 179.508C112.226 183.04 152.989 206.789 157.208 207.87L205.892 179.508L206.054 123.236C202.353 119.97 174.589 104.675 166.612 100.145C151.76 91.7109 162.128 93.0187 126.171 112.143C102.386 124.794 107.596 123.037 107.598 135.035Z" fill="#003399"/>
<path fill-rule="evenodd" clip-rule="evenodd" d="M110.912 176.98L110.921 125.165L112.325 124.208C114.994 122.39 117.934 120.688 120.708 119.026C125.258 116.296 129.837 113.606 134.432 110.949C138.925 108.351 143.44 105.771 148.002 103.292C150.111 102.143 154.148 99.794 156.422 99.2186L157.563 98.9298L158.623 99.4461C166.056 103.081 173.121 107.605 180.222 111.847C187.169 115.997 194.927 119.613 201.414 124.402L202.723 125.366L202.697 177.684L157.673 203.788L156.38 203.436C154.207 202.848 150.035 200.369 147.997 199.252C143.259 196.657 138.558 193.98 133.878 191.284C129.181 188.575 124.498 185.838 119.858 183.034C117.679 181.716 113.832 179.597 111.979 177.933L110.912 176.98Z" fill="white"/>
<path fill-rule="evenodd" clip-rule="evenodd" d="M114.106 166.8L114.133 126.867C118.958 123.579 153.365 103.311 157.208 102.337C164.187 105.746 171.589 110.437 178.571 114.609C185.065 118.488 193.897 122.853 199.503 126.99L199.481 175.831L157.219 200.334C154.105 199.49 116.731 177.881 114.124 175.542L114.106 166.8Z" fill="#003399"/>
<path d="M176.896 147.265C178.321 148.142 179.19 149.689 179.19 151.355C179.19 153.021 178.321 154.566 176.896 155.356L148.174 172.915C146.696 173.903 144.846 173.942 143.337 173.095C141.826 172.246 140.891 170.651 140.891 168.914V133.796C140.891 132.064 141.826 130.466 143.337 129.619C144.847 128.771 146.696 128.806 148.174 129.709L176.896 147.265Z" fill="white"/>
<path d="M378.673 208.322V157.939L340.087 97.9313H374.609L389.452 126.367C389.554 126.52 389.709 126.778 389.915 127.19C391.457 130.149 392.537 133.004 393.156 135.707C393.644 133.237 394.724 130.509 396.398 127.499C396.681 126.933 396.886 126.572 396.989 126.368L411.678 97.9325H446.277L407.691 157.94V208.323L378.673 208.322ZM489.233 170.445C489.233 164.784 487.794 160.306 484.937 157.039C482.083 153.77 478.198 152.124 473.336 152.124C468.423 152.124 464.538 153.77 461.684 157.039C458.853 160.306 457.44 164.784 457.44 170.445C457.44 176.131 458.854 180.609 461.659 183.851C464.462 187.093 468.372 188.714 473.337 188.714C478.25 188.714 482.135 187.093 484.989 183.851C487.819 180.608 489.233 176.131 489.233 170.445ZM515.935 170.445C515.935 175.925 514.855 181.149 512.72 186.063C510.585 191.004 507.497 195.43 503.407 199.342C499.292 203.254 494.688 206.238 489.594 208.245C484.475 210.253 479.074 211.255 473.337 211.255C467.497 211.255 462.044 210.252 456.951 208.245C451.832 206.238 447.278 203.254 443.266 199.342C439.227 195.508 436.166 191.134 434.057 186.193C431.948 181.227 430.892 175.977 430.892 170.445C430.892 164.885 431.947 159.637 434.031 154.696C436.115 149.781 439.175 145.355 443.266 141.418C447.227 137.559 451.755 134.624 456.874 132.669C461.967 130.713 467.447 129.736 473.337 129.736C479.227 129.736 484.707 130.713 489.774 132.669C494.841 134.624 499.395 137.559 503.407 141.418C507.55 145.405 510.662 149.857 512.771 154.773C514.88 159.687 515.935 164.938 515.935 170.445ZM609.468 132.206V171.061C609.468 179.656 608.772 186.038 607.383 190.181C606.02 194.323 603.679 198.003 600.412 201.219C597.043 204.591 592.85 207.113 587.834 208.76C582.792 210.433 576.902 211.256 570.11 211.256C563.37 211.256 557.505 210.433 552.515 208.76C547.499 207.113 543.256 204.592 539.73 201.219C536.463 198.107 534.149 194.452 532.784 190.258C531.421 186.063 530.753 179.656 530.753 171.061V132.206H556.373V172.811C556.373 179.167 557.428 183.774 559.538 186.629C561.647 189.461 565.069 190.874 569.801 190.874C574.586 190.874 578.007 189.486 580.09 186.707C582.175 183.901 583.229 179.269 583.229 172.811V132.206H609.468ZM632.902 208.322V151.197H621.481V132.207H632.902V109.511H659.293V132.207H670.715V151.197H659.293V208.322H632.902ZM683.217 208.322V91.446H709.61V132.463C709.61 135.165 709.532 137.687 709.379 140.004C709.224 142.32 709.017 144.405 708.709 146.257C712.079 140.57 716.041 136.401 720.595 133.724C725.173 131.075 730.626 129.737 736.929 129.737C741.868 129.737 746.241 130.534 750.074 132.104C753.907 133.7 757.044 135.963 759.437 138.948C761.469 141.497 762.884 144.635 763.733 148.29C764.582 151.969 765.019 157.451 765.019 164.733V208.323H738.163V167.537C738.163 161.438 737.159 157.04 735.179 154.259C733.198 151.505 730.035 150.117 725.661 150.117C720.08 150.117 716.014 152.175 713.442 156.292C710.895 160.409 709.61 167.099 709.61 176.363V208.322H683.217ZM960.699 208.322H932.584L926.127 160.589C925.664 157.218 925.252 153.487 924.866 149.345C924.505 145.228 924.146 140.725 923.862 135.862C923.142 140.545 921.778 146.359 919.721 153.359C919.258 154.801 918.924 155.88 918.717 156.602L903.746 208.323H883.681L868.711 156.602C868.504 155.881 868.196 154.801 867.784 153.359C865.675 146.359 864.311 140.57 863.643 135.938C863.359 140.107 862.999 144.25 862.588 148.342C862.203 152.432 861.714 156.525 861.173 160.589L854.69 208.322H826.729L843.759 97.9302H873.521L890.163 154.851C890.267 155.262 890.473 155.905 890.782 156.832C892.325 161.9 893.302 166.25 893.714 169.879C893.921 167.897 894.28 165.735 894.845 163.342C895.385 160.949 896.157 158.067 897.109 154.696L913.907 97.9302H943.747L960.699 208.322ZM1027.51 160.46C1026.99 156.137 1025.34 152.664 1022.57 150.039C1019.76 147.415 1016.34 146.102 1012.25 146.102C1007.88 146.102 1004.38 147.286 1001.78 149.68C999.208 152.073 997.484 155.675 996.61 160.462L1027.51 160.46ZM1053.9 175.591H996.019C996.069 181.457 997.588 185.987 1000.55 189.177C1003.53 192.368 1007.72 193.963 1013.15 193.963C1017.24 193.963 1020.66 193.191 1023.47 191.673C1026.24 190.13 1028.38 187.864 1029.84 184.854L1050.04 192.985C1047.62 198.827 1043.35 203.331 1037.23 206.495C1031.08 209.661 1023.57 211.255 1014.67 211.255C1001.39 211.255 990.746 207.576 982.745 200.216C974.721 192.832 970.707 183.129 970.707 171.061C970.707 159.199 974.719 149.343 982.719 141.496C990.746 133.647 1000.88 129.736 1013.13 129.736C1025.73 129.736 1035.69 133.699 1042.97 141.649C1050.25 149.6 1053.9 160.485 1053.9 174.305L1053.9 175.591ZM1127.44 170.341C1127.44 164.424 1125.87 159.739 1122.73 156.317C1119.62 152.895 1115.33 151.196 1109.92 151.196C1104.5 151.196 1100.23 152.894 1097.11 156.317C1094 159.738 1092.46 164.424 1092.46 170.341C1092.46 176.311 1094 180.995 1097.09 184.39C1100.18 187.787 1104.45 189.486 1109.92 189.486C1115.33 189.486 1119.62 187.786 1122.74 184.364C1125.87 180.942 1127.44 176.259 1127.44 170.341ZM1151.26 91.446V208.322H1126.54V195.971C1123.12 201.092 1119.29 204.925 1115.02 207.448C1110.75 209.995 1106.01 211.256 1100.79 211.256C1090.09 211.256 1081.58 207.551 1075.25 200.166C1068.92 192.781 1065.76 182.823 1065.76 170.316C1065.76 158.196 1068.92 148.393 1075.22 140.93C1081.53 133.468 1089.73 129.737 1099.87 129.737C1106.3 129.737 1111.54 130.895 1115.58 133.211C1119.62 135.527 1123.22 139.412 1126.39 144.842C1126.08 143.041 1125.87 140.983 1125.72 138.693C1125.56 136.402 1125.49 133.906 1125.49 131.255V91.4471L1151.26 91.446ZM1170.58 108.43C1170.58 104.363 1172.02 100.915 1174.93 98.0598C1177.81 95.2044 1181.28 93.7624 1185.37 93.7624C1189.59 93.7624 1193.11 95.1782 1195.94 97.9825C1198.8 100.788 1200.21 104.262 1200.21 108.43C1200.21 112.598 1198.77 116.124 1195.87 119.031C1192.99 121.94 1189.49 123.405 1185.37 123.405C1181.33 123.405 1177.86 121.913 1174.95 118.954C1172.05 115.994 1170.58 112.495 1170.58 108.43ZM1171.97 208.322V132.206H1198.82V208.322H1171.97ZM1277.36 170.187C1277.36 164.243 1275.79 159.56 1272.63 156.086C1269.46 152.612 1265.14 150.888 1259.66 150.888C1254.18 150.888 1249.89 152.612 1246.75 156.06C1243.61 159.481 1242.04 164.217 1242.04 170.186C1242.04 176.104 1243.61 180.788 1246.77 184.211C1249.94 187.632 1254.23 189.331 1259.66 189.331C1265.14 189.331 1269.46 187.633 1272.63 184.211C1275.79 180.789 1277.36 176.105 1277.36 170.187ZM1301 132.206V208.322H1276.31V195.971C1272.78 201.246 1268.85 205.105 1264.45 207.576C1260.05 210.02 1254.88 211.255 1248.96 211.255C1238.8 211.255 1230.7 207.55 1224.6 200.139C1218.53 192.728 1215.49 182.77 1215.49 170.315C1215.49 157.887 1218.68 148.031 1225.04 140.697C1231.39 133.39 1239.93 129.736 1250.69 129.736C1256.42 129.736 1261.36 130.971 1265.5 133.415C1269.64 135.86 1273.19 139.617 1276.15 144.712V132.206H1301Z" fill="white"/>
</svg>
